<?xml version="1.0" encoding="UTF-8" standalone="no"?>
<!DOCTYPE svg PUBLIC "-//W3C//DTD SVG 1.1//EN"
 "http://www.w3.org/Graphics/SVG/1.1/DTD/svg11.dtd">
<!-- Generated by graphviz version 2.43.0 (0)
 -->
<!-- Title: Graphical Class Hierarchy Pages: 1 -->
<svg width="345pt" height="134pt"
 viewBox="0.00 0.00 345.00 134.00" xmlns="http://www.w3.org/2000/svg" xmlns:xlink="http://www.w3.org/1999/xlink">
<g id="graph0" class="graph" transform="scale(1 1) rotate(0) translate(4 130)">
<title>Graphical Class Hierarchy</title>
<!-- Node0 -->
<g id="Node000000" class="node">
<title>Node0</title>
<g id="a_Node000000"><a xlink:href="structDGtal_1_1DECImage2D.html" target="_top" xlink:title="Aim: This class simplifies the development of 2D image processing tools using discrete exterior calcu...">
<polygon fill="white" stroke="#666666" points="152,-78 0,-78 0,-48 152,-48 152,-78"/>
<text text-anchor="start" x="8" y="-66" font-family="FreeSans" font-size="10.00">DGtal::DECImage2D&lt;</text>
<text text-anchor="middle" x="76" y="-55" font-family="FreeSans" font-size="10.00"> TKSpace, TLinearAlgebra &gt;</text>
</a>
</g>
</g>
<!-- Node1 -->
<g id="Node000001" class="node">
<title>Node1</title>
<g id="a_Node000001"><a xlink:href="structDGtal_1_1ATVu2v0.html" target="_top" xlink:title="Aim: This class solves a variant of Ambrosio&#45;Tortorelli functional in a plane for u a (vector of) 2&#45;f...">
<polygon fill="white" stroke="#666666" points="337,-126 188,-126 188,-96 337,-96 337,-126"/>
<text text-anchor="start" x="196" y="-114" font-family="FreeSans" font-size="10.00">DGtal::ATVu2v0&lt; TKSpace,</text>
<text text-anchor="middle" x="262.5" y="-103" font-family="FreeSans" font-size="10.00"> TLinearAlgebra &gt;</text>
</a>
</g>
</g>
<!-- Node0&#45;&gt;Node1 -->
<g id="edge1_Node000000_Node000001" class="edge">
<title>Node0&#45;&gt;Node1</title>
<g id="a_edge1_Node000000_Node000001"><a xlink:title=" ">
<path fill="none" stroke="#63b8ff" d="M144.57,-80.58C164.02,-85.64 185.05,-91.11 203.83,-96"/>
<polygon fill="#63b8ff" stroke="#63b8ff" points="145.43,-77.19 134.87,-78.06 143.67,-83.96 145.43,-77.19"/>
</a>
</g>
</g>
<!-- Node2 -->
<g id="Node000002" class="node">
<title>Node2</title>
<g id="a_Node000002"><a xlink:href="structDGtal_1_1ATu0v1.html" target="_top" xlink:title="Aim: This class solves Ambrosio&#45;Tortorelli functional in a plane for u a (vector of) 0&#45;form(s) and v ...">
<polygon fill="white" stroke="#666666" points="333,-78 192,-78 192,-48 333,-48 333,-78"/>
<text text-anchor="start" x="200" y="-66" font-family="FreeSans" font-size="10.00">DGtal::ATu0v1&lt; TKSpace,</text>
<text text-anchor="middle" x="262.5" y="-55" font-family="FreeSans" font-size="10.00"> TLinearAlgebra &gt;</text>
</a>
</g>
</g>
<!-- Node0&#45;&gt;Node2 -->
<g id="edge2_Node000000_Node000002" class="edge">
<title>Node0&#45;&gt;Node2</title>
<g id="a_edge2_Node000000_Node000002"><a xlink:title=" ">
<path fill="none" stroke="#63b8ff" d="M162.31,-63C172.21,-63 182.22,-63 191.88,-63"/>
<polygon fill="#63b8ff" stroke="#63b8ff" points="162.04,-59.5 152.04,-63 162.04,-66.5 162.04,-59.5"/>
</a>
</g>
</g>
<!-- Node3 -->
<g id="Node000003" class="node">
<title>Node3</title>
<g id="a_Node000003"><a xlink:href="structDGtal_1_1ATu2v0.html" target="_top" xlink:title="Aim: This class solves Ambrosio&#45;Tortorelli functional in a plane for u a (vector of) 2&#45;form(s) and v ...">
<polygon fill="white" stroke="#666666" points="333,-30 192,-30 192,0 333,0 333,-30"/>
<text text-anchor="start" x="200" y="-18" font-family="FreeSans" font-size="10.00">DGtal::ATu2v0&lt; TKSpace,</text>
<text text-anchor="middle" x="262.5" y="-7" font-family="FreeSans" font-size="10.00"> TLinearAlgebra &gt;</text>
</a>
</g>
</g>
<!-- Node0&#45;&gt;Node3 -->
<g id="edge3_Node000000_Node000003" class="edge">
<title>Node0&#45;&gt;Node3</title>
<g id="a_edge3_Node000000_Node000003"><a xlink:title=" ">
<path fill="none" stroke="#63b8ff" d="M144.57,-45.42C164.02,-40.36 185.05,-34.89 203.83,-30"/>
<polygon fill="#63b8ff" stroke="#63b8ff" points="143.67,-42.04 134.87,-47.94 145.43,-48.81 143.67,-42.04"/>
</a>
</g>
</g>
</g>
</svg>
