<?xml version="1.0" encoding="UTF-8" standalone="no"?>
<!DOCTYPE svg PUBLIC "-//W3C//DTD SVG 1.1//EN"
 "http://www.w3.org/Graphics/SVG/1.1/DTD/svg11.dtd">
<!-- Generated by graphviz version 2.43.0 (0)
 -->
<!-- Title: DGtal::DECImage2D&lt; TKSpace, TLinearAlgebra &gt; Pages: 1 -->
<svg width="515pt" height="194pt"
 viewBox="0.00 0.00 515.00 193.50" xmlns="http://www.w3.org/2000/svg" xmlns:xlink="http://www.w3.org/1999/xlink">
<g id="graph0" class="graph" transform="scale(1 1) rotate(0) translate(4 189.5)">
<title>DGtal::DECImage2D&lt; TKSpace, TLinearAlgebra &gt;</title>
<!-- Node1 -->
<g id="Node000001" class="node">
<title>Node1</title>
<g id="a_Node000001"><a xlink:title="Aim: This class simplifies the development of 2D image processing tools using discrete exterior calcu...">
<polygon fill="#999999" stroke="#666666" points="152,-113.5 0,-113.5 0,-83.5 152,-83.5 152,-113.5"/>
<text text-anchor="start" x="8" y="-101.5" font-family="FreeSans" font-size="10.00">DGtal::DECImage2D&lt;</text>
<text text-anchor="middle" x="76" y="-90.5" font-family="FreeSans" font-size="10.00"> TKSpace, TLinearAlgebra &gt;</text>
</a>
</g>
</g>
<!-- Node2 -->
<g id="Node000002" class="node">
<title>Node2</title>
<g id="a_Node000002"><a xlink:href="structDGtal_1_1ATVu2v0.html" target="_top" xlink:title="Aim: This class solves a variant of Ambrosio&#45;Tortorelli functional in a plane for u a (vector of) 2&#45;f...">
<polygon fill="white" stroke="#666666" points="500.5,-185.5 351.5,-185.5 351.5,-155.5 500.5,-155.5 500.5,-185.5"/>
<text text-anchor="start" x="359.5" y="-173.5" font-family="FreeSans" font-size="10.00">DGtal::ATVu2v0&lt; TKSpace,</text>
<text text-anchor="middle" x="426" y="-162.5" font-family="FreeSans" font-size="10.00"> TLinearAlgebra &gt;</text>
</a>
</g>
</g>
<!-- Node1&#45;&gt;Node2 -->
<g id="edge1_Node000001_Node000002" class="edge">
<title>Node1&#45;&gt;Node2</title>
<g id="a_edge1_Node000001_Node000002"><a xlink:title=" ">
<path fill="none" stroke="#63b8ff" d="M139.86,-116.13C149.91,-118.74 160.22,-121.29 170,-123.5 230.7,-137.23 300.21,-149.84 351.31,-158.53"/>
<polygon fill="#63b8ff" stroke="#63b8ff" points="140.49,-112.68 129.93,-113.52 138.71,-119.45 140.49,-112.68"/>
</a>
</g>
</g>
<!-- Node3 -->
<g id="Node000003" class="node">
<title>Node3</title>
<g id="a_Node000003"><a xlink:href="structDGtal_1_1ATu0v1.html" target="_top" xlink:title="Aim: This class solves Ambrosio&#45;Tortorelli functional in a plane for u a (vector of) 0&#45;form(s) and v ...">
<polygon fill="white" stroke="#666666" points="496.5,-137.5 355.5,-137.5 355.5,-107.5 496.5,-107.5 496.5,-137.5"/>
<text text-anchor="start" x="363.5" y="-125.5" font-family="FreeSans" font-size="10.00">DGtal::ATu0v1&lt; TKSpace,</text>
<text text-anchor="middle" x="426" y="-114.5" font-family="FreeSans" font-size="10.00"> TLinearAlgebra &gt;</text>
</a>
</g>
</g>
<!-- Node1&#45;&gt;Node3 -->
<g id="edge2_Node000001_Node000003" class="edge">
<title>Node1&#45;&gt;Node3</title>
<g id="a_edge2_Node000001_Node000003"><a xlink:title=" ">
<path fill="none" stroke="#63b8ff" d="M162.19,-104.38C221.55,-108.47 299.75,-113.86 355.38,-117.7"/>
<polygon fill="#63b8ff" stroke="#63b8ff" points="162.3,-100.87 152.08,-103.68 161.82,-107.86 162.3,-100.87"/>
</a>
</g>
</g>
<!-- Node4 -->
<g id="Node000004" class="node">
<title>Node4</title>
<g id="a_Node000004"><a xlink:href="structDGtal_1_1ATu2v0.html" target="_top" xlink:title="Aim: This class solves Ambrosio&#45;Tortorelli functional in a plane for u a (vector of) 2&#45;form(s) and v ...">
<polygon fill="white" stroke="#666666" points="496.5,-89.5 355.5,-89.5 355.5,-59.5 496.5,-59.5 496.5,-89.5"/>
<text text-anchor="start" x="363.5" y="-77.5" font-family="FreeSans" font-size="10.00">DGtal::ATu2v0&lt; TKSpace,</text>
<text text-anchor="middle" x="426" y="-66.5" font-family="FreeSans" font-size="10.00"> TLinearAlgebra &gt;</text>
</a>
</g>
</g>
<!-- Node1&#45;&gt;Node4 -->
<g id="edge3_Node000001_Node000004" class="edge">
<title>Node1&#45;&gt;Node4</title>
<g id="a_edge3_Node000001_Node000004"><a xlink:title=" ">
<path fill="none" stroke="#63b8ff" d="M162.19,-92.62C221.55,-88.53 299.75,-83.14 355.38,-79.3"/>
<polygon fill="#63b8ff" stroke="#63b8ff" points="161.82,-89.14 152.08,-93.32 162.3,-96.13 161.82,-89.14"/>
</a>
</g>
</g>
<!-- Node5 -->
<g id="Node000005" class="node">
<title>Node5</title>
<g id="a_Node000005"><a xlink:href="structDGtal_1_1DECImage2D.html" target="_top" xlink:title=" ">
<polygon fill="white" stroke="#666666" points="507,-41 345,-41 345,0 507,0 507,-41"/>
<text text-anchor="start" x="353" y="-29" font-family="FreeSans" font-size="10.00">DGtal::DECImage2D&lt;</text>
<text text-anchor="start" x="353" y="-18" font-family="FreeSans" font-size="10.00"> TKSpace, EigenLinearAlgebra</text>
<text text-anchor="middle" x="426" y="-7" font-family="FreeSans" font-size="10.00">Backend &gt;</text>
</a>
</g>
</g>
<!-- Node1&#45;&gt;Node5 -->
<g id="edge4_Node000001_Node000005" class="edge">
<title>Node1&#45;&gt;Node5</title>
<g id="a_edge4_Node000001_Node000005"><a xlink:title=" ">
<path fill="none" stroke="orange" stroke-dasharray="5,2" d="M112.8,-78.91C129.7,-70.47 150.41,-61.23 170,-55.5 227.15,-38.77 293.89,-29.98 344.76,-25.39"/>
<polygon fill="orange" stroke="orange" points="111.15,-75.82 103.84,-83.49 114.34,-82.06 111.15,-75.82"/>
</a>
</g>
<text text-anchor="start" x="170" y="-69.5" font-family="FreeSans" font-size="10.00" fill="grey"> &lt; TKSpace, EigenLinearAlgebra</text>
<text text-anchor="middle" x="248.5" y="-58.5" font-family="FreeSans" font-size="10.00" fill="grey">Backend &gt;</text>
</g>
</g>
</svg>
